<svg t="1737823281159" class="icon" viewBox="0 0 1587 1024" version="1.1" xmlns="http://www.w3.org/2000/svg" p-id="18948" width="50" height="60"><path d="M6.647005 1017.67812h1574.003528v-1011.50074H6.647005v1011.50074z m1577.32703 3.215128zM0 1024V0h1587.225288v1024z" fill="#DEDEDE" p-id="18949"></path><path d="M1583.901785 1020.820998H3.323502V3.106752h1580.578283v1017.714246z" fill="#003894" p-id="18950"></path><path d="M793.594581 512H3.323502V3.106752h790.271079v508.893248z" fill="#003894" p-id="18951"></path><path d="M793.594581 181.239258h-316.093981V3.106752H319.453609v178.132506H3.323502v152.664362h316.130107v178.09638h158.046991v-178.09638h316.093981V181.239258z" fill="#FFFFFF" p-id="18952"></path><path d="M793.594581 453.549707L94.033444 3.106752H3.323502v58.992168L702.270514 512h91.324067v-58.450293z" fill="#FFFFFF" p-id="18953"></path><path d="M3.323502 453.549707L702.993015 3.106752h90.601566v58.992168L94.755944 512H3.323502v-58.450293z" fill="#FFFFFF" p-id="18954"></path><path d="M793.594581 213.029281h-349.040005V3.106752H352.399633v209.922529H3.323502v89.084315h349.076131v209.886404h92.154943v-209.886404h349.040005V213.029281z" fill="#E60012" p-id="18955"></path><path d="M793.594581 510.554999v-40.24328l-212.30678-136.408099h-62.604671l274.911451 176.651379zM793.594581 3.106752H731.170536l-253.669936 162.959995v15.172511h38.978903L793.594581 3.215127V3.106752zM278.415579 333.90362L3.323502 510.591124v1.408876h60.36492l255.765187-164.29662v-13.79976H278.415579zM3.323502 3.468003v40.207154L217.472659 181.239258h62.604671L3.323502 3.468003z" fill="#E60012" p-id="18956"></path><path d="M398.495167 649.455726l24.095393 72.213928 73.478303-26.840895-43.458406 63.146546 67.481549 38.798279-78.138432 6.502504 10.656883 75.140055-54.11529-54.946165-54.079165 54.946165 10.656883-75.140055-78.138432-6.502504 67.481549-38.798279-43.458407-63.146546 73.550554 26.840895 23.987018-72.213928zM1188.730121 794.353207l11.885133 35.366401 35.872152-13.185635-21.241516 30.886898 32.946024 18.929514-38.184153 3.215127 5.238129 36.739152-26.515769-26.87702-26.407395 26.87702 5.238129-36.739152-38.148028-3.215127 32.909899-18.929514-21.169265-30.886898 35.908276 13.185635 11.668384-35.366401zM991.306851 391.595287l11.812884 35.294151 35.872151-13.113385-21.277641 30.886898 33.12665 18.893389-38.328653 3.215127 5.274253 36.775277-26.479644-26.87702-26.443519 26.87702 5.382629-36.775277-38.364778-3.215127 33.054399-18.893389-21.169266-30.886898 35.799901 13.113385 11.740634-35.294151zM1188.730121 116.64771l11.885133 35.258026 35.872152-13.113384-21.241516 30.850772 32.946024 19.001764-38.184153 3.215128 5.238129 36.739151-26.515769-26.913144-26.407395 26.913144 5.238129-36.739151-38.148028-3.215128 32.909899-19.001764-21.169265-30.850772 35.908276 13.113384 11.668384-35.258026zM1364.333874 324.402738l11.740634 35.330275 35.944401-13.149509-21.27764 30.959148 33.018274 18.857263-38.220278 3.251253 5.202004 36.703027-26.407395-26.913145-26.443519 26.913145 5.274254-36.703027-38.220278-3.251253 33.018274-18.857263-21.349891-30.959148 35.980527 13.149509 11.740633-35.330275zM1268.241304 523.849009l9.031257 21.386015 23.950892 1.697877-18.351513 14.919636 5.780004 22.469766-20.41064-12.210259-20.302265 12.210259 5.780004-22.469766-18.423763-14.919636 23.914767-1.697877 9.031257-21.386015z" fill="#FFFFFF" p-id="18957"></path></svg>