          <svg
            t="1737818065090"
            class="icon"
            viewBox="0 0 1489 1024"
            version="1.1"
            xmlns="http://www.w3.org/2000/svg"
            p-id="10042"
            width="50"
            height="60"
          >
            <path
              d="M33.885091 20.293818h1421.684364V968.145455H33.885091z"
              fill="#083F80"
              p-id="10043"
            ></path>
            <path
              d="M33.885091 352.069818h1421.684364V633.018182H33.885091z"
              fill="#FFFFFF"
              p-id="10044"
            ></path>
            <path
              d="M880.546909 18.059636v947.851637H599.505455V18.059636z"
              fill="#FFFFFF"
              p-id="10045"
            ></path>
            <path
              d="M1455.569455 863.232V968.145455h-169.239273L33.885091 135.447273V20.293818h165.794909z"
              fill="#FFFFFF"
              p-id="10046"
            ></path>
            <path
              d="M1455.569455 125.207273V20.293818h-169.239273L33.885091 849.733818V968.145455h165.794909z"
              fill="#FFFFFF"
              p-id="10047"
            ></path>
            <path
              d="M33.885091 94.766545l382.510545 257.303273h115.060364L33.885091 20.293818v74.472727z m1421.684364 795.55491L1073.058909 633.018182h-115.060364l497.57091 335.127273v-77.824zM880.174545 324.887273v26.996363h74.472728L1455.569455 20.386909h-125.207273L880.174545 324.980364z m-270.894545 338.478545V633.018182h-74.472727L33.885091 968.145455h125.207273l450.187636-304.686546zM660.107636 20.293818h165.888V968.145455H660.014545V20.293818z"
              fill="#B7333C"
              p-id="10048"
            ></path>
            <path
              d="M30.347636 576.884364V410.996364h1425.128728v165.888z"
              fill="#B7333C"
              p-id="10049"
            ></path>
          </svg>