<svg t="1737877934168" class="icon" viewBox="0 0 1587 1024" version="1.1" xmlns="http://www.w3.org/2000/svg" p-id="21387" width="50" height="60"><path d="M0 0h1587.225v1024H0V0z" fill="#005BAC" p-id="21388"></path><path d="M793.63 225.167l-51.622 35.909 18.063-60.149-49.961-38.003 62.857-1.3 20.664-59.354 20.627 59.353 62.858 1.3-50.106 38.004 18.063 60.149z m143.38 38.546l-62.784 5.202 45.878-43.025-24.384-57.8 55.09 30.309 47.686-41.219-11.813 61.738 53.79 32.512-62.388 7.84-14.45 61.412z m104.98 104.762l-56.86-26.732 61.195-14.45 7.803-62.135 32.513 53.79 61.81-11.885-41.074 47.649 30.308 55.09-57.8-24.42-43.097 45.842 5.202-62.749z m38.437 143.417l-35.908-51.587 60.184 18.063 37.968-50.106 1.3 62.894 59.39 20.627-59.39 20.628-1.3 62.893-37.968-49.816-60.184 18.062z m-38.437 143.416l-5.202-62.532 43.025 45.842 57.8-24.384-30.309 55.09 41.074 47.541-61.773-11.777-32.513 53.79-7.803-62.424-61.232-14.45 56.861-26.732z m-104.98 104.98l26.77-56.898 14.45 61.196 62.17 7.948-53.79 32.512 11.886 61.955-47.577-41.11-55.018 30.272 24.384-57.8-45.879-43.35 62.605 5.31z m-143.38 38.436l51.696-35.8-18.063 60.149 50.106 38.003-62.858 1.3-20.627 59.39-20.808-59.39-62.858-1.3 50.105-38.003-18.062-60.149z m-143.38-38.328l62.605-5.383-45.843 43.025 24.385 57.8-55.09-30.345-47.47 41.508 11.814-61.774-53.79-32.513 62.388-7.839 14.45-61.232 26.551 56.753z m-104.979-104.98l56.86 26.733-61.195 14.45-7.803 62.424-32.512-53.79-61.774 11.777 41.074-47.541-30.381-55.344 57.8 24.385 43.025-45.807-5.274 62.605zM506.834 512l35.872 51.55-60.184-18.062-37.967 50.105-1.3-62.893-59.39-20.628 59.39-20.772 1.3-62.893 37.967 50.105 60.184-18.062z m38.401-143.525l5.274 62.677-43.025-45.879-57.8 24.42 30.31-55.09-41.22-47.54 61.774 11.813 32.513-53.79 7.803 62.387 61.232 14.45-56.861 26.552zM650.25 263.713l-26.768 56.86-14.45-61.195-62.388-7.84 53.79-32.512-11.596-61.846 47.577 41.074 55.09-30.309-24.42 57.8 45.806 43.025-62.64-5.057z" fill="#FFF100" p-id="21389"></path></svg>