<svg t="1737822639380" class="icon" viewBox="0 0 1526 1024" version="1.1" xmlns="http://www.w3.org/2000/svg" p-id="14510" width="50" height="60"><path d="M0 1024h1526.528V0H0z m501.504-672.256a48.896 48.896 0 0 0 63.744 42.496 80.896 80.896 0 0 1 96.768 66.56 66.816 66.816 0 0 0 90.88 55.552l4.096-3.072a6.144 6.144 0 0 1 0-2.048 3.584 3.584 0 0 1 0-1.792l-5.12-3.584a155.136 155.136 0 0 1 82.944-292.608 49.152 49.152 0 0 0-20.736 73.984 80.896 80.896 0 0 1-34.048 112.896 66.56 66.56 0 0 0-25.6 102.4l4.352 3.072a8.96 8.96 0 0 1 3.584-1.536 47.872 47.872 0 0 1 1.792-5.632 155.136 155.136 0 0 1 304.64-11.776 49.152 49.152 0 0 0-76.8 3.072 80.896 80.896 0 0 1-118.016 2.56 66.56 66.56 0 0 0-105.984 8.448l-1.536 4.864a5.888 5.888 0 0 1 2.304 2.816H776.96a155.136 155.136 0 0 1 104.96 286.208 48.896 48.896 0 0 0-25.6-71.936 80.896 80.896 0 0 1-38.912-111.36 66.816 66.816 0 0 0-40.96-98.304h-4.864a7.936 7.936 0 0 1-2.304 2.816 57.6 57.6 0 0 1 2.048 6.144 155.136 155.136 0 0 1-239.616 188.16 48.896 48.896 0 0 0 60.16-47.36 80.896 80.896 0 0 1 93.952-71.424 66.56 66.56 0 0 0 80.896-69.12 34.304 34.304 0 0 0-1.792-4.608 7.424 7.424 0 0 1-3.328-1.28l-5.376 3.84a155.136 155.136 0 0 1-252.928-169.728z" fill="#E83632" p-id="14511"></path><path d="M728.832 349.44l3.84 2.304a116.224 116.224 0 0 0 22.528 151.808 66.56 66.56 0 0 1 25.6-102.4 80.896 80.896 0 0 0 34.048-112.896 49.152 49.152 0 0 1 20.736-73.984A155.136 155.136 0 0 0 751.36 506.624a120.832 120.832 0 0 1-22.528-157.184z m9.984-46.848l13.824 12.288 16.128-9.472-7.424 17.152 13.824 12.288-18.432-2.048-7.424 17.152-4.096-17.152-19.456-2.56 16.128-9.472z" fill="#FFFFFF" p-id="14512"></path><path d="M745.472 332.032l3.84 18.176 7.424-17.152 18.432 1.792-13.824-12.288 7.424-17.152-16.128 9.472-13.824-12.288 4.096 18.176-16.128 9.472 18.688 1.792zM759.552 506.624l-4.352-3.072a116.224 116.224 0 0 1-22.528-151.808l-3.84-2.304a120.832 120.832 0 0 0 23.04 157.184l5.12 3.584a5.376 5.376 0 0 1 2.56-3.584z" fill="#E72D29" p-id="14513"></path><path d="M907.264 429.056v4.352a115.968 115.968 0 0 0-137.472 68.352 66.56 66.56 0 0 1 105.984-8.448 80.896 80.896 0 0 0 118.016-2.56 49.152 49.152 0 0 1 76.8-3.072 155.136 155.136 0 0 0-304.64 11.776 120.32 120.32 0 0 1 141.312-70.4z m21.76 10.24l-4.096-18.176 13.824 12.288 16.128-9.472-7.424 17.152 13.824 12.288-18.432-1.792-7.424 17.152-4.864-18.176-18.432-1.792z" fill="#FFFFFF" p-id="14514"></path><path d="M935.424 468.736l7.424-17.152 18.432 1.792-13.824-12.288 7.424-17.152-16.128 9.472-13.824-12.288 4.096 18.176-16.128 9.472 18.432 1.792 4.096 18.176zM767.232 506.624l1.536-4.864a115.968 115.968 0 0 1 137.472-68.352v-4.352a120.32 120.32 0 0 0-142.336 70.4 47.872 47.872 0 0 0-1.792 5.632 6.4 6.4 0 0 1 5.12 1.536z" fill="#E72D29" p-id="14515"></path><path d="M544.512 531.2a155.136 155.136 0 0 0 209.92-9.728A120.832 120.832 0 0 1 597.76 494.592l3.584-2.816a116.48 116.48 0 0 0 151.296 25.6A66.816 66.816 0 0 1 662.016 460.8a80.896 80.896 0 0 0-96.768-67.328 48.896 48.896 0 0 1-63.744-42.496 155.136 155.136 0 0 0 43.008 180.224zM572.16 460.8l-4.096-17.92 14.08 12.288 15.872-9.472-7.424 16.896 14.08 12.288-18.688-1.536-7.424 16.896-3.84-18.176-18.688-1.792z" fill="#FFFFFF" p-id="14516"></path><path d="M579.072 490.496l7.424-16.896 18.688 1.792-14.08-12.544 7.424-16.896-15.872 9.472-14.08-12.544 4.096 18.432-16.128 9.216 18.688 1.792 3.84 18.176zM601.6 491.776l-3.584 2.816a120.832 120.832 0 0 0 156.416 26.88l5.376-3.84a4.864 4.864 0 0 1-2.816-3.584l-4.096 3.072a116.48 116.48 0 0 1-151.296-25.344z" fill="#E72D29" p-id="14517"></path><path d="M886.784 623.36h-4.352a116.48 116.48 0 0 0-107.776-109.568 66.816 66.816 0 0 1 40.96 98.304A80.896 80.896 0 0 0 853.76 723.712a48.896 48.896 0 0 1 25.6 71.936 155.136 155.136 0 0 0-102.4-286.208 121.088 121.088 0 0 1 109.824 113.92z m19.456 43.52l-18.432-1.28-7.424 17.152-4.096-18.176-18.432-1.792 15.872-9.472-4.096-18.176 14.08 12.288 15.872-9.216-7.424 16.896z" fill="#FFFFFF" p-id="14518"></path><path d="M883.712 646.912l-13.824-12.288 3.84 18.176-15.872 9.472 18.432 1.792 4.096 18.176 7.424-17.152 18.432 1.792-14.08-12.288 7.424-16.896-15.872 9.216zM770.048 512a7.168 7.168 0 0 1 0 2.304h4.864a116.48 116.48 0 0 1 107.776 109.568h4.352A121.088 121.088 0 0 0 776.96 509.44h-6.4a4.608 4.608 0 0 1-0.512 2.56z" fill="#E72D29" p-id="14519"></path><path d="M695.552 663.808l-1.536-4.096a116.48 116.48 0 0 0 70.912-136.192 66.56 66.56 0 0 1-80.896 69.12 80.896 80.896 0 0 0-93.952 71.424 48.896 48.896 0 0 1-60.16 47.36 155.136 155.136 0 0 0 239.616-188.16 120.832 120.832 0 0 1-73.984 140.544z m-35.328 32l-4.096-18.176-18.432-1.792 15.872-9.472-4.608-18.176 14.08 12.288 15.872-9.472-7.424 17.152 14.08 12.288-18.688-1.792z" fill="#FFFFFF" p-id="14520"></path><path d="M672 668.16l7.424-17.152-15.872 9.472-14.08-12.288 4.096 18.176-16.128 9.472 18.688 1.792 3.84 18.176 7.424-17.152 18.688 1.792-14.08-12.288zM763.392 518.912a34.304 34.304 0 0 1 1.792 4.608 116.48 116.48 0 0 1-70.912 136.192l1.536 4.096a120.832 120.832 0 0 0 73.984-140.544 57.6 57.6 0 0 0-2.048-6.144 6.144 6.144 0 0 1-4.352 1.792z" fill="#E72D29" p-id="14521"></path><path d="M759.808 517.632a7.424 7.424 0 0 0 3.328 1.28 6.144 6.144 0 0 0 4.096-1.792 7.936 7.936 0 0 0 2.304-2.816 7.168 7.168 0 0 0 0-2.304 4.608 4.608 0 0 0 0-2.56 5.888 5.888 0 0 0-2.304-2.816 6.4 6.4 0 0 0-3.84-1.536 8.96 8.96 0 0 0-3.584 1.536 5.376 5.376 0 0 0-2.56 3.584 3.584 3.584 0 0 0 0 1.792 6.144 6.144 0 0 0 0 2.048 4.864 4.864 0 0 0 2.56 3.584z" fill="#E72D29" p-id="14522"></path></svg>